<svg width="16" height="16" viewBox="0 0 16 16" fill="none" xmlns="http://www.w3.org/2000/svg">
<path d="M8.00016 4.05755C8.19086 4.05755 8.35072 4.12206 8.47975 4.25109C8.60877 4.38012 8.67329 4.53998 8.67329 4.73067C8.67329 4.92136 8.60877 5.08123 8.47975 5.21025C8.35072 5.33914 8.19086 5.40359 8.00016 5.40359C7.80947 5.40359 7.64961 5.33914 7.52058 5.21025C7.39155 5.08123 7.32704 4.92136 7.32704 4.73067C7.32704 4.53998 7.39155 4.38012 7.52058 4.25109C7.64961 4.12206 7.80947 4.05755 8.00016 4.05755ZM8.00037 7.10234C8.17759 7.10234 8.326 7.16227 8.44558 7.28213C8.5653 7.40185 8.62516 7.55025 8.62516 7.72734V11.4773C8.62516 11.6544 8.56523 11.8029 8.44537 11.9228C8.32551 12.0425 8.17704 12.1023 7.99995 12.1023C7.82273 12.1023 7.67433 12.0425 7.55475 11.9228C7.43502 11.8029 7.37516 11.6544 7.37516 11.4773V7.72734C7.37516 7.55025 7.43509 7.40185 7.55496 7.28213C7.67482 7.16227 7.82329 7.10234 8.00037 7.10234ZM8.00162 0.0831709C6.90662 0.0831709 5.87738 0.290948 4.91391 0.706504C3.95044 1.12206 3.11238 1.68602 2.39975 2.39838C1.68711 3.11074 1.12287 3.94845 0.707038 4.9115C0.291343 5.87456 0.0834961 6.90352 0.0834961 7.99838C0.0834961 9.09338 0.291274 10.1226 0.706829 11.0861C1.12238 12.0496 1.68634 12.8876 2.3987 13.6003C3.11107 14.3129 3.94877 14.8771 4.91183 15.293C5.87489 15.7087 6.90384 15.9165 7.9987 15.9165C9.0937 15.9165 10.1229 15.7087 11.0864 15.2932C12.0499 14.8776 12.8879 14.3137 13.6006 13.6013C14.3132 12.8889 14.8775 12.0512 15.2933 11.0882C15.709 10.1251 15.9168 9.09616 15.9168 8.0013C15.9168 6.9063 15.7091 5.87706 15.2935 4.91359C14.8779 3.95011 14.314 3.11206 13.6016 2.39942C12.8893 1.68678 12.0516 1.12255 11.0885 0.706712C10.1254 0.291018 9.09648 0.0831709 8.00162 0.0831709ZM8.00016 1.33317C9.86127 1.33317 11.4377 1.979 12.7293 3.27067C14.021 4.56234 14.6668 6.13873 14.6668 7.99984C14.6668 9.86095 14.021 11.4373 12.7293 12.729C11.4377 14.0207 9.86127 14.6665 8.00016 14.6665C6.13905 14.6665 4.56266 14.0207 3.271 12.729C1.97933 11.4373 1.3335 9.86095 1.3335 7.99984C1.3335 6.13873 1.97933 4.56234 3.271 3.27067C4.56266 1.979 6.13905 1.33317 8.00016 1.33317Z" fill="#1C1B1F"/>
</svg>
